<svg xmlns="http://www.w3.org/2000/svg" viewBox="0 0 800 500" width="800" height="500" role="img" aria-label="الدراجة الهوائية (أسولت) — رسم توضيحي داخلي">
  <defs>
    <linearGradient id="bg" x1="0" y1="0" x2="1" y2="1">
      <stop offset="0" stop-color="#12151b"/>
      <stop offset="0.5" stop-color="#1b2028"/>
      <stop offset="1" stop-color="#12151b"/>
    </linearGradient>
    <radialGradient id="glow" cx="0.5" cy="0.42" r="0.5">
      <stop offset="0" stop-color="#f26a21" stop-opacity="0.20"/>
      <stop offset="1" stop-color="#f26a21" stop-opacity="0"/>
    </radialGradient>
    <pattern id="grid" width="40" height="40" patternUnits="userSpaceOnUse">
      <path d="M40 0 H0 V40" fill="none" stroke="#ffffff" stroke-opacity="0.04" stroke-width="1"/>
    </pattern>
  </defs>
  <rect width="800" height="500" fill="url(#bg)"/>
  <rect width="800" height="500" fill="url(#grid)"/>
  <rect width="800" height="500" fill="url(#glow)"/>
  <g><path d="M232 356 H568" stroke="#3a424f" stroke-width="10" stroke-linecap="round"/><circle cx="492" cy="296" r="52" fill="none" stroke="#8b94a3" stroke-width="6"/><g stroke="#8b94a3" stroke-width="4"><path d="M492 248 V344"/><path d="M444 296 H540"/><path d="M458 262 L526 330"/><path d="M458 330 L526 262"/></g><path d="M492 296 L430 350" stroke="#8b94a3" stroke-width="7" stroke-linecap="round"/><path d="M448 214 L470 250" stroke="#8b94a3" stroke-width="7" stroke-linecap="round"/><rect x="346" y="306" width="58" height="18" rx="8" fill="#1b2028" stroke="#8b94a3" stroke-width="5"/><path d="M374 306 V350" stroke="#8b94a3" stroke-width="7"/><circle cx="366" cy="176" r="19" fill="#e9edf3"/><path d="M372 194 L392 252" stroke="#e9edf3" stroke-width="16" fill="none" stroke-linecap="round" stroke-linejoin="round"/><path d="M380 206 L424 200 L448 216" stroke="#e9edf3" stroke-width="13" fill="none" stroke-linecap="round" stroke-linejoin="round"/><circle cx="448" cy="216" r="6" fill="#f26a21"/><path d="M392 252 L428 286 L420 330" stroke="#e9edf3" stroke-width="13" fill="none" stroke-linecap="round" stroke-linejoin="round"/><path d="M392 252 L372 296 L398 326" stroke="#e9edf3" stroke-width="13" fill="none" stroke-linecap="round" stroke-linejoin="round"/><path d="M540 250 a56 56 0 0 1 6 46" stroke="#f26a21" stroke-width="5" fill="none" stroke-linecap="round" stroke-dasharray="2 12"/><path d="M544 288 l4 12 -12 -2" stroke="#f26a21" stroke-width="5" fill="none" stroke-linecap="round" stroke-linejoin="round"/>
  </g>
  <g font-family="'SF Arabic','Geeza Pro','Segoe UI',system-ui,sans-serif" direction="rtl">
    <g transform="translate(40 30) scale(0.34)" fill="none" stroke="#f26a21" stroke-width="20" stroke-linecap="round" stroke-linejoin="round">
      <path d="M6 60 L34 20 L62 60"/>
    </g>
    <text x="80" y="46" font-size="22" font-weight="800" fill="#e9edf3" text-anchor="start">قمّة</text>
    <text x="400" y="412" font-size="34" font-weight="800" fill="#ffffff" text-anchor="middle">الدراجة الهوائية (أسولت)</text>
    <text x="400" y="444" font-size="18" font-weight="600" fill="#9099a6" text-anchor="middle" direction="ltr">Assault Bike</text>
    <text x="400" y="474" font-size="15" font-weight="700" fill="#6b7280" text-anchor="middle">رسم توضيحي داخلي · قمّة</text>
  </g>
</svg>
