<svg xmlns="http://www.w3.org/2000/svg" viewBox="0 0 800 500" width="800" height="500" role="img" aria-label="جلسة الحائط — رسم توضيحي داخلي">
  <defs>
    <linearGradient id="bg" x1="0" y1="0" x2="1" y2="1">
      <stop offset="0" stop-color="#12151b"/>
      <stop offset="0.5" stop-color="#1b2028"/>
      <stop offset="1" stop-color="#12151b"/>
    </linearGradient>
    <radialGradient id="glow" cx="0.5" cy="0.42" r="0.5">
      <stop offset="0" stop-color="#f26a21" stop-opacity="0.20"/>
      <stop offset="1" stop-color="#f26a21" stop-opacity="0"/>
    </radialGradient>
    <pattern id="grid" width="40" height="40" patternUnits="userSpaceOnUse">
      <path d="M40 0 H0 V40" fill="none" stroke="#ffffff" stroke-opacity="0.04" stroke-width="1"/>
    </pattern>
  </defs>
  <rect width="800" height="500" fill="url(#bg)"/>
  <rect width="800" height="500" fill="url(#grid)"/>
  <rect width="800" height="500" fill="url(#glow)"/>
  <g><path d="M232 356 H568" stroke="#3a424f" stroke-width="10" stroke-linecap="round"/><path d="M302 132 V352" stroke="#8b94a3" stroke-width="10" stroke-linecap="round"/><circle cx="336" cy="176" r="19" fill="#e9edf3"/><path d="M336 194 L336 262" stroke="#e9edf3" stroke-width="16" fill="none" stroke-linecap="round" stroke-linejoin="round"/><path d="M336 262 L420 262" stroke="#e9edf3" stroke-width="13" fill="none" stroke-linecap="round" stroke-linejoin="round"/><path d="M420 262 L420 348" stroke="#e9edf3" stroke-width="13" fill="none" stroke-linecap="round" stroke-linejoin="round"/><path d="M336 204 L352 250 L348 274" stroke="#e9edf3" stroke-width="13" fill="none" stroke-linecap="round" stroke-linejoin="round"/><path d="M452 216 h22" stroke="#f26a21" stroke-width="5" fill="none" stroke-linecap="round" stroke-linejoin="round"/><path d="M452 230 h22" stroke="#f26a21" stroke-width="5" fill="none" stroke-linecap="round" stroke-linejoin="round"/>
  </g>
  <g font-family="'SF Arabic','Geeza Pro','Segoe UI',system-ui,sans-serif" direction="rtl">
    <g transform="translate(40 30) scale(0.34)" fill="none" stroke="#f26a21" stroke-width="20" stroke-linecap="round" stroke-linejoin="round">
      <path d="M6 60 L34 20 L62 60"/>
    </g>
    <text x="80" y="46" font-size="22" font-weight="800" fill="#e9edf3" text-anchor="start">قمّة</text>
    <text x="400" y="412" font-size="34" font-weight="800" fill="#ffffff" text-anchor="middle">جلسة الحائط</text>
    <text x="400" y="444" font-size="18" font-weight="600" fill="#9099a6" text-anchor="middle" direction="ltr">Wall Sit</text>
    <text x="400" y="474" font-size="15" font-weight="700" fill="#6b7280" text-anchor="middle">رسم توضيحي داخلي · قمّة</text>
  </g>
</svg>
